<svg width="210" height="210" viewBox="0 0 210 210" fill="none" xmlns="http://www.w3.org/2000/svg">
<path fill-rule="evenodd" clip-rule="evenodd" d="M5.32961 43.2093C0 56.0745 0 72.3843 0 105.004C0 137.623 0 153.933 5.32961 166.798C12.4341 183.948 26.0596 197.574 43.2093 204.678C56.0745 210.008 72.3843 210.008 105.004 210.008C137.623 210.008 153.933 210.008 166.798 204.678C183.948 197.574 197.574 183.948 204.678 166.798C209.454 155.269 209.95 140.974 210.002 114.653H131.113L89.679 172.547L97.6252 114.653H59.0292L114.653 37.4608L107.274 94.2197H209.999C209.935 68.6209 209.385 54.5717 204.678 43.2093C197.574 26.0596 183.948 12.4341 166.798 5.32961C153.933 0 137.623 0 105.004 0C72.3843 0 56.0745 0 43.2093 5.32961C26.0596 12.4341 12.4341 26.0596 5.32961 43.2093Z" fill="url(#paint0_linear_6_125)"/>
<defs>
<linearGradient id="paint0_linear_6_125" x1="105.001" y1="0" x2="105.001" y2="210.008" gradientUnits="userSpaceOnUse">
<stop stop-color="#FDBA74"/>
<stop offset="1" stop-color="#FB923C"/>
</linearGradient>
</defs>
</svg>